<svg xmlns="http://www.w3.org/2000/svg" width="530" height="626"><path fill="#5b5632" d="M346 2h2l2.3 9.2c4.2 24.2-8 48.8-20.3 68.8q9-8.5 16.7-18.1l5-6c8.2-9.4 15.9-19.5 21.3-30.9l2 1c2.3 29.3-10.7 53.8-29.2 75.6L341 107a155 155 0 0 0 24.3-19q6.7-5.8 12.8-12.3C380 74 380 74 382 74a73 73 0 0 1-12 33 430 430 0 0 0 73.2-54.6q10.6-9.5 19.5-20.8l9.2-11.4q3.2-3.8 5.8-8.1L479 10h2c5.3 17.2-2.1 37.6-9.8 52.8A123 123 0 0 1 450 91a216 216 0 0 0 42.2-33.1l7-7 2.2-2.2 2.1-2.1 2-1.9C507 43 507 43 509 40h2a79 79 0 0 1-10 40l-1.5 3a91 91 0 0 1-13.5 19l-2.2 2.6-6.8 7.4-2.2 2.4A182 182 0 0 1 450 135a253 253 0 0 0 57.1-30c2.9-2 2.9-2 4.9-2-3.1 20.4-19.8 38.6-35.8 50.9A133 133 0 0 1 442 173a169 169 0 0 0 48.8-13.2c2.2-.8 2.2-.8 4.2-.8-4.9 16.8-21.1 29-35.8 37.2A197 197 0 0 1 427 209q21 .3 42-1c-5.3 11.6-19.7 19-31 23.9a104 104 0 0 1-39 8.1v2l3.4.4q7.5 1 15 2.5l2.7.6 2.6.5 2.4.4c1.9.6 1.9.6 3.9 2.6-12.4 12-28.5 13.2-45 14l14 8c-8 8-21.3 8.4-32 10l10 8c-8.3 6.7-16.6 6.4-27 7l9 9c-4.4 4.4-7.6 4.3-13.6 4.6h-2.5l-5.9.4 1.3 1.4 1.8 2 1.7 1.8 1.2 1.8-1 3c-2.7.9-4.2 1.1-7 1.1h-7.1l-5.9-.1 6 8c-3 3-6.2 2.5-10.1 2.6l-2.3.1-5.6.3 3.6 1a145 145 0 0 1 76.4 51l9 11 2 2.5c6.9 8.1 15.3 14.7 26.1 15.8 6.8.3 12.4-.1 17.9-4.3 4.6-4.6 6-9.4 6.3-15.7-.4-15.8-10.5-25-21.3-35.3l-4.2-3.6c-8.1-7-15.7-15.2-16.8-26.4-.3-4.3-.3-8 1-12.2 1-3.8 1-6.7.9-10.6a28 28 0 0 1 8.4-22c9.4-8.8 19.2-10.6 31.7-10.2v2c8-.3 14.3-1.6 20.4-7.1A34 34 0 0 0 474 255h3a42 42 0 0 1 5 19h1c.9 7.8-1.9 13.4-6 20a57 57 0 0 1-7 7l7-3q-1.9 8.8-9.5 13.7c-12.3 6.8-24.7 7-38.5 7.2-2 .1-2 .1-3 1.1-.8 6.7 1.4 11.5 5 17 5 6 11.3 11 17.4 15.9a51 51 0 0 1 17.6 23.6q6.7 17.6-1.1 35a42 42 0 0 1-22.6 20.6 54 54 0 0 1-38.1-4.4C393 422 384 413.4 375 405c1.5 22.2 3.1 42.8 20 59q3.4 3 7.2 5.5c4.2 3.4 4.4 7.4 5 12.4l5 36.8q1 6.8 1.2 13.5v3.3c-.6 4.8-2.4 9-4.4 13.5h2l9 .4 3.1.2q8.5.3 16.9 1.4c-3.2 2.2-4.5 2.3-8.3 2.6l-3.4.2-3.8.3h-2c-21 1.3-42.2 1.6-63.3 1.8l-11.2.2a7536 7536 0 0 1-303.5-1.5l-3-.1A139 139 0 0 1 21 552v-1l30-3v-12a24 24 0 0 1 12-13 242 242 0 0 1 17 0l.9-2.2c1.1-2.8 1.1-2.8 2.2-5 6-18.8-2-42.6-6.5-61q-2.4-9.4-4-18.8a57 57 0 0 0-9.5-22.7c-5-7.7-6.7-16-7.9-25-.3-2-.3-2-1.2-5.3l-4-2c-4.2-5.5-5.1-12.4-6.2-19l-.6-3-1.2-7-2 4c-3-1-3-1-4-2.7l-3-7.6-1-2.8c-3.4-9.5-5.4-19-7-28.9l-2 3c-1.2-2.5-1.2-4.3-1.3-7.1l-.1-3.2-.2-3.3v-3.5L21 290v-2.6c-.4-8.2-.1-15.6 3-23.4l-7 1 1-1.8q4.4-9.7 7.3-19.7 1.3-5 3.7-9.5h-3a50 50 0 0 1 15-23l-3-2c6.4-8.5 15-13.7 25-17l-3-3c7-4 14.3-3.3 22-3l-3-3c5.3-.4 8.4.4 13.1 3 2 1 3.6 1.7 5.9 2 1.8-1 1.8-1 3.7-2.4 4.3-3 8.1-3.5 13.3-3.6l-3 4 2.5-.1c7.7-.2 14.2.6 21.5 3.1v3l2 1c6.5 3.3 11.6 7 16.8 12l6.2 5v2l-2 2 1.4 1.8c7 8.6 7 8.6 8.6 13.2l-.5 2.3c-.6 3.3 0 5.1 1 8.2l1 3.2 1.2 3.2 1 3.3A48 48 0 0 0 180 264l-1 2-4-1 1.4 5.8.8 3.3q.8 3 1.8 5.9c5.7-10.6 5.7-10.6 6-16l.2-2.5c.5-17.1-5.9-32.3-13.4-47.3a43 43 0 0 1-2-35c7.2-18.7 23.3-27.9 39.4-38.2q10.3-6.9 19.8-15l2.3-1.9a76 76 0 0 0 12.1-13.2l1.6-1.9h1l1 13 3.4-3q4.4-3.8 9-7.4A221 221 0 0 0 277 96.3q13.3-11.8 25-25.3l2-2.4 7-8.6 1.4-1.7c13.4-17 25.8-36 33.6-56.3m127 27-3 3.9a223 223 0 0 1-44.5 43.6c-12.9 10.2-12.9 10.2-17 12.7C406 91 406 91 404 94l-5 2-8 5-3 1.8-2.9 1.9c-10.4 6.6-10.4 6.6-14.1 10.3v4c6.2-1.7 11.5-4.9 17-8l-1.4 1-6.3 4.2-2.2 1.5A63 63 0 0 0 367 127c3.2 0 4-.3 6.5-2l2.1-1.2 2.3-1.4 2.4-1.5q26.2-16.4 49.5-36.3 3.4-3 7.2-5.6a231 231 0 0 1-31.5 27.3c-4.4 3.4-4.4 3.4-5.5 6.7l-7 3-2 3-6 3v2l-5 2v1l5 1-13 4c3 1 3 1 6 1l-7 2v1c7.2.7 11.2-1.2 17.3-5l9.7-6 2-1.2c5.6-3.5 10.4-7 15-11.8l-1-1 2.9-.5c5.6-1.6 9.7-5.7 14.1-9.5l2.9-2.5C439 94 439 94 441 92v-2l-7 1 2-1c20.6-10.6 30.1-29.5 37.2-50.6.8-3.6 1-6.7.8-10.4zm-138 7 1 2Zm-1 2 1 2Zm-1 2-2.1 3.1a296 296 0 0 1-33.7 41.7 87 87 0 0 0-6.8 7.4q-2.9 3.3-6 6-4.9 4.2-9.2 8.7-6.5 6.3-13.5 12-6 4.8-11.7 10.1c14 0 35.3-24.5 45-34l7-8 2.5-2.9q14.1-16 25.3-34.4l1.3-2.2L334 42zm26 16 1 2Zm142 2-2.5 3q-5.3 6-11.5 11l-2.5 2.2c-16.7 14.4-35.5 25.6-54.4 37l-12 7.2-1.8 1.2q-7.3 4.6-14.4 9.6a258 258 0 0 1-21 12.5l-2.2 1.1C377 144 377 144 375 147l1 3c30.2-14.9 59.9-30 87-50a85 85 0 0 1-13.7 11.4L447 113l-9.4 6.7a194 194 0 0 1-25.2 15.3l-2.8 1.6-9.6 5.4v2l10.4-.2h2.9A61 61 0 0 0 451 126v-2l-12 1 2.9-.7c10.9-2.6 21.4-5.6 28.1-15.3h-6l2-1.2c17.4-10.6 26-23.6 34-41.8l1.3-2.8c.7-2.2.7-2.2-.3-5.2m-145 2-2 4 3-2zm-3 4-2.6 2.8c-20.7 22.4-20.7 22.4-31.3 31.4q-4.5 3.8-8.8 8l-1.6 1.5q-5 4.5-9.7 9.3c4-1.7 7.2-4.4 10.6-7l1.9-1.5q6.9-5.6 13.4-11.6l5.3-4.5a73 73 0 0 0 7.8-8q4.7-5.5 9.7-10.8Q351 70 354 66zm5.4 55.8-2.2 1.2-2.4 1.4q-8 4.5-16.5 8A63 63 0 0 0 308 152c3.3 0 5-.7 7.9-2l2.8-1.2L332 143l-3.5 2q-11.1 5.9-22.1 12.4l-3.2 2-2.2 1.6v3a76 76 0 0 0 20-6.9l3-1.4c16.1-8 32.6-18.5 40-35.7v-2c-2.4 0-3.5.7-5.6 1.8M495 121c-1.7.7-1.7.7-3.9 2l-2.4 1.3-2.7 1.5a384 384 0 0 1-52.4 22.4 503 503 0 0 0-45.1 19.2q-7.2 3.4-14.5 6.6c3.9 1.3 6.3.2 10-1.1l2.1-.7 11.9-4q22.5-7.7 44.9-16 4.5-1.7 9.1-3.2l-2.1 1-9.6 4.4-3.4 1.5-3.3 1.5-3 1.4q-3.3 1.4-6.6 3.2v1c23.5.9 40.5-7 57.8-22.5q8.5-8.4 15.2-18.5zm-181.7 9a118 118 0 0 1-32.2 17.3l-9.8 3.8-2 .8c-18.2 7.2-34.5 15.3-43.4 33.8-4 9.8-2.2 21.3-.4 31.4 3.7 21.2 2.5 39.5-9.5 57.9l-1.3 2-2.7 4 5-2c-.2 1.9-.2 1.9-1 4l-4 2-5.1 4.3q-5.3 4.5-11.3 7.9A33 33 0 0 0 184 309v5l2-3 2-3v5l2-2.1q4.8-4.7 10-8.9l-3 5q4.3-2 8-5l-5 5 1 2 9-7c-6 7.1-6 7.1-9 10l1 2a99 99 0 0 0 15-17l-2 9q3.3-4.4 5.7-9.2l1.3-2.8 1-2 1 4 3-5.8 1.6-3.3c1.4-2.9 1.4-2.9 2.4-5.9l1 6c2-3.6 2.8-7.2 3.7-11.2 1.4-6 3.4-9.8 7.7-14 2.6-3 3-6 3.6-9.8l-6 3 1.1-1.6 1.5-2.2 1.4-2.2c1-2 1-2 0-5l-2 1 1.1-2.3 1.5-3 1.4-2.9c1-2.9 1.1-4 0-6.8l-3 2 .7-2 .8-2.7.8-2.6q1-3.8.7-7.7l-4 2 1.1-2.3 1.5-3 1.4-3.1 1-2.6-1-2-4 2 9-12-4-2 1.5-1.1q6.8-4.8 12.5-10.9v-2h-4l1.5-1.3q7-6 13.5-12.7c2.2-2.2 3-2.3 6-3l7.2-4 1.8-1-1.8 1.4-2.4 1.8-2.4 1.9a72 72 0 0 0-6.4 5.9 38 38 0 0 0 12.8-6.6l1.8-1.3c11.5-8.5 23.7-18.7 29.4-32.1v-2c-2.8 0-3.6 1.2-5.7 3m-83.8 3.3c-8.5 7.9-18.2 14.2-27.8 20.6-12 8-21.5 15.6-27 29.3a55 55 0 0 0 6.6 36.5c8.5 17 12.3 33.4 7 51.9-1.4 5.1-1.4 5.1-.3 8.4l1-3h2a69 69 0 0 0-3.2-57.2A43 43 0 0 1 184 201l-.1-3.7c-.2-7.2.2-13.3 2.5-20.1.6-2.2.6-2.2-.4-5.2l3-3 1 2 1.9-1.8q7.8-7.4 16.7-13.8A159 159 0 0 0 226 141l2-2c3.4-3 5.8-5.5 7-10-2 0-4.2 3-5.5 4.3m136.1 10.4-3 1-3.3 1.3-3.6 1.4-3.7 1.4a757 757 0 0 0-25.5 10c-5.3 2.3-9.8 4.8-12.5 10.2q5.1-1 10-2.8l2.9-1.1 3-1.2 2.9-1.1 7.2-2.8-16 8v2l-2.4.9C319 172 319 172 318 174l-6 2 2 2-9 4c3.9 1.3 6.3.2 10-1l2.2-.7c21.2-7 42.1-15.2 52.8-36.3-2-1-2-1-4.4-.3m38 .7h-2c-3.7.3-6.5.6-9.6 2.6l1 2-12 4 2 2-8 2v1l5 1-1.7.3-2.2.5-2.3.5c-.3 0-.3 0-1.8.7l-1 3c1 1 1 1 3.5 1.3 4.8-.4 8.7-2 13.2-4l2.7-1q8.3-3.4 16-7.8c4.8-2.8 9.7-5 14.6-7.5v-1q-8.7-.2-17.3.4M398 173l-4.6 1.1-2.5.5-1.9.4 1 3-10 1v2l-8 2v1l-5 1 3 2-8 2v1c9.5.7 17.8-1.8 26.8-4.5q2.2-.8 4.7-1.4c16.6-4.9 33-10.4 48.5-18.1v-1q-4-.7-8-1l-3.2-.3c-10.4-.6-25.1 1.6-32.8 9.3m-123 6c3 1 3 1 5 1l-8 4 4 1-6 2c6 2.4 14.1-1 20-3a38 38 0 0 0 16-13v-1a46 46 0 0 0-31 9m-87-8 1 2Zm157 4q-18 6.2-35 15c3.7 1.2 5 .6 8.8-.4q1.5-.6 3.4-1l3.5-1 3.6-1 8.7-2.6-3.6 1.2-4.8 1.7-2.4.8-2.3.8-2.1.7c-1.8.8-1.8.8-3.8 2.8-3.5 2-7.2 3-11 4.2-2 .8-2 .8-3 2.8l-5 2c3.7 1.3 6.3.7 10-.3l3.7-.9 3.7-1 3.7-.8c16.6-4.2 35-10 44.8-25l1.1-2c-5.4-2.7-16.5 2.3-22 4m127.5-2-2.8.8-3.1.8a356 356 0 0 1-26.7 5.9l-3.4.6-7 1.3q-33.1 6-65.5 15.6v1q13.4-.8 26.4-3l3.7-.7 30.4-5 3.2-.5 2.9-.5c2.4-.3 2.4-.3 5.4-.3l-2.5.6-11.5 2.7-2 .4q-13.5 3-26.9 6.6c-3.1.7-3.1.7-7 1.2l-3.1.5-1 2h-11l4 2-2 .1-2.8.3-2.7.2c-2.5.4-2.5.4-5.5 2.4v2h-9v1c20.6.6 41-1 61-6-1-2-1-2-2-3l3.3.1h4.3l2.2.2A21 21 0 0 0 434 199l4.4-1.2c15.5-4.5 28.8-14 40.6-24.8-2.7-1.3-3.7-.7-6.5 0M266 196v1l15-1-16 4v1l7 1-9 3c7.5 2.5 19.7-1.6 26.7-4.7A51 51 0 0 0 301 191v-1c-13-.8-23 .5-35 6m-189-5 2.1 2c6.5 6.5 10.7 15 14.9 23h1l.4-11.2c.2-6.2.2-6.2-2.8-9.4C90 194 90 194 88 194l-1.7-1c-3-1.3-6-1.6-9.3-2m27 5c-4.6 5.6-5.1 9.7-5 16.8v6.2c1.6-2.4 2.6-4.2 3.6-6.8l.8-2.3 1.8-4.6A26 26 0 0 1 113 194l1.8-1.8 1.2-1.2c-4.7 0-8.2 2.4-12 5m5 2c-1.6 2.6-1.6 2.6-2 5l1 3 2-2-2 6 5-5v-2l1.6-.7q3-1.5 5.8-3.4a21 21 0 0 1 8.6-2.9c-6.4-4.3-14.2-2.3-20 2m-46-1-1 2 8 3-1 3 1.6 1.2L81 214a28 28 0 0 0-7.2-15.5c-3.9-2-6.5-1.8-10.8-1.5m259.5 4.8-4.2 1c-6.6 1.8-13 3.6-19.3 6.2 3.4 1.1 5.8.9 9.3.2l3-.5 3.3-.6 9-1.7c2.4-.4 2.4-.4 5.4-.4l-25 6 1 2-2 .4-2.4.5-2.5.5-2.1.6-1 2c18.7-.7 40.8-3 56-15l4-5a101 101 0 0 0-32.5 3.8m-204.4 3.5a22 22 0 0 0-3.1 7.7l1.8-1c2.5-1.2 4.5-1 7.2-1l-2 3 2-.7c7.9-2.6 14-2 22-.3l5 1c-5.3-6.6-12.9-8.4-21-10l10-2v-1c-17-1.1-17-1.1-21.9 4.3M55 207l1 1-2.1.6-2.8.7-2.7.8c-2.4.9-2.4.9-4.4 3.9l1.7-.3 7.5-1.3 2.6-.4c7-1.2 11.5-.3 18.2 2-1.7-4-4-7-8-9-4.2-.2-7.4-.3-11 2m51-1 1 2Zm158 5-1 2h8l-8 2 4 2-8 3v1c12-.5 22.6-1.9 32-10v-2a45 45 0 0 0-27 2m103.1 6.4-3.8.4c-8 .9-8 .9-10.3 3.2l59 2-28.1 1.2-5.3.3h-2.8l-2.6.2-2.3.1c-1.9.2-1.9.2-3.9 1.2h-5l-2 1-4 1v1l-9-1c2.8 2.8 5.1 2.8 9 3.6a160 160 0 0 0 35.7 2.5l8.3-.1v-2l-5-2 1.9.4A69 69 0 0 0 451 217v-1c-64.6-.6-64.6-.6-83.9 1.4M51 222c-1.5 4.4-2 8.7-.1 13l3.1 5c1.2-3.6 1.1-6.4 1-10.2V223c2.8-.2 2.8-.2 6 0l2.5 3 2.5 3c3.3-.1 3.3-.1 6-1a13 13 0 0 0-6.4-8.3l-2.3-1.6c-5.6-2.7-8.3 0-12.3 3.9m-10-4-3 4c3.9-1.7 3.9-1.7 5-4zm257 6v1l18 1-20 2 3 2-8 2v1l16.4.2c14 .3 25-1.8 35.6-11.2-4.3-2.8-8-2.4-13-2.4h-2.9c-10 .2-19.4 2-29.1 4.4m-230 8 1 2h1l-1.7 2a53 53 0 0 0-9.3 39 38 38 0 0 0 4 9l3-2-1-3.7c-.8-3-1-5.1-1-8.3a21 21 0 0 1 8 9q.6 6.3.4 12.8c0 6.6 0 6.6 3 9.8 3.2 1.7 4.9 2.5 8.6 2.4 5-1.9 9-3.6 12-8 0-3.6-.9-4.9-3.2-7.6C90 286 90 286 87.2 284l-2.2-2v-4l1 1c7.8 1 15.3 1.3 23 0l1-1c.2 2.3.2 2.3 0 5-1.7 1.7-1.7 1.7-3.9 3.2a39 39 0 0 0-6.1 4.8c-.6 6.3-.6 6.3 1.3 8.6q5.8 4.8 13.5 4.2c3.2-.8 3.2-.8 6.2-2.8l1 2v-2l.4-8.6v-3c.3-5.4.7-10.3 2.6-15.4 2-1.2 2-1.2 4-2 1.8-2.1 1.8-2.1 3-4-.5 4.1-1 7.3-3 11v3l3 1c5.4-8 5.2-17 3.6-26.2-1.9-9-4.6-16-11-22.8a12 12 0 0 1-2.6-6c-5.2-4.1-9.8-4.7-16.3-4.5-2.7.5-2.7.5-5.3 2.8L99 229l-2 3-3-5.4c-1-1.6-1-1.6-3-2.6-9.4-1-16.7.6-23 8m192-5v1l5 1-4 2 5 1-7 2v1c9.4.6 17.1-.7 24.6-6.7l2.4-2.3v-1l-9.6-.1h-2.8c-5-.1-9 .1-13.6 2.1m-226 4c-1.2 2.1-1.2 2.1-2 4l1.9-1.2L44 227c-4.8 0-6.3 1.1-10 4m117-3 5 4 2-1c-3.6-3-3.6-3-7-3m7 4 3 4 2-1-3-3zm-2 4v3l-1 3 1 2-3 1 1.6 2c7.2 8.7 7.2 8.7 9.4 14 1.2-2.9 1-4 0-7l-1.4-3.2-1.5-3.3-1.1-2.5 5 6 1-2c-1-2.5-1-2.5-2.7-5.5l-1.6-3a10 10 0 0 0-5.7-4.5m180 1c3.8 2.2 8 3.1 12.3 4.2l2.4.6L376 248l-2.3-.4-10.2-1.5-3.6-.6L342 243l-1 1-7-1 2 2-3 2 9 2.4 2.5.6c14.9 4 14.9 4 20.5 4v-3l2.6 2c11.1 6.7 29.6 3.4 41.7.9l2.7-.9 1-2c-51.3-14.3-51.3-14.3-77-14m-78 4 4 2-3 2 3 1-6 2v1a37 37 0 0 0 27-8c-7-4.6-17.3-2-25 0m32 1 14 2-14 1v2l-5 1v1a58 58 0 0 0 34.3-1.8c1.7-1.2 1.7-1.2 3.7-4.2l-3.6-1.4-2-.8c-5.6-1.8-11.3-2-17.1-2l-4-.1c-3.3.3-3.3.3-6.3 3.3m-253.7-3.4-1.8 2.2-1.8 2a18 18 0 0 0-4.3 11.4L28 257l-.1 2 1.6-2q4.2-5 8.6-9.8l1.7-1.8L44 241l-2-1-2.9 2c-3.1 2-3.1 2-5.1 3l6-8c-2 0-2 0-3.7 1.6M50 245c-6.7 4.3-12 8.7-17 15l1 2 2-1-1.2 2.9A75 75 0 0 0 27 297q3-4.8 5.5-10t5.5-10c-2.7 11.1-2.7 11.1-4.1 15.3-2 6.2-2 12.6-2 19l-.1 2.5A61 61 0 0 0 34 330h1l2-18 1.2 6.7A85 85 0 0 0 51 350c1.3-4 0-6.4-1.3-10.2a83 83 0 0 1-5-34c0-7 .5-13 2.8-19.6.5-2.2.5-2.2-.5-5.2l-2.3 3.5-1.3 2c-1.9 3.4-3 6.9-4.4 10.5 2.6-11.4 5.8-21.6 11.3-31.9C52 262 52 262 53 259l-5 2 3-7a30 30 0 0 0-8.2 5.6l-2.2 2L39 263c3.6-6.6 7.4-12 13-17zm93 1 1.1 1.3q5.3 6 9.9 12.7l-3-2-4.2-2.6-2.2-1.4-1.6-1q2 5.3 5 10c-2 0-2 0-4-1q1.9 5.9 4.5 11.5A91 91 0 0 1 156 298l-.6-2a48 48 0 0 0-10.4-18c-1 2-1 2 .2 5.7l1.7 4.6a63 63 0 0 1 .1 43.7l-1 3.2-2 6.8c7.4-6.8 9.6-17.6 12-27l1 7c5.7-8.5 5.4-21.5 3.6-31.3q-3-12.3-8.6-23.7a84 84 0 0 1 11.7 20.9q1.4 3.6 3.3 7.1c.3-7 0-13.1-2.3-19.8-.7-2.2-.7-2.2-1-5.3a39 39 0 0 0-15.4-21.8C145 246 145 246 143 246m183 7c2.6 2.6 4.9 3.2 8.3 4.4L356 265l-1.9-.4-2.4-.6-2.4-.6c-2.3-.4-2.3-.4-5.3-.3-3.8-.1-6.3-1.5-9.7-3.1a29 29 0 0 0-10.3-2l-2 1-7-2c2.2 2.4 4 3.7 7 4.9l2.4 1c38.9 15.2 38.9 15.2 57.7 9l1.9-.9c-3.4-3.4-8-4.6-12.4-6.3l-3.2-1.2q-13.9-5.3-28.4-8.5l-3.3-.7c-3.7-.8-6.8-1.3-10.7-1.3m-69 2.5-1 1.5 4 2-6 1c4.4 2.5 8 2.7 13 2 4.8-1.5 8.2-2.8 11-7-3.7-1.2-7.2-1.2-11-1.2l-2.2-.1c-5.3 0-5.3 0-7.8 1.8m27-.5v2l12 4-8.1-.1q-4 .2-7.9 1.1c5.2 5.2 12.9 5.2 19.9 5.2l12.1-.2a18 18 0 0 0-9-9 48 48 0 0 0-19-3m-252 7-2 4 3-2zm-3 4-2 4 1 3 2-7zm225 0-1 4 3 1-4 2c4.2 2 9.5 1.3 14 1 5.5-2 5.5-2 7-5-6-3.4-12.3-3.1-19-3m-15 2a11 11 0 0 0-1 6.1v3.9c2.4-3.6 2.2-5.7 2-10zm39 1a30 30 0 0 0 8 6l-8-1v1l-6 1a37 37 0 0 0 25.6 7.2c2.4-.2 2.4-.2 4.4-1.2-2.4-5.8-7.8-8.7-13.5-11-3.7-1.4-6.4-2-10.5-2m40 0a105 105 0 0 0 12 7l-3.3-1.5c-5.2-2-10.2-1.8-15.7-1.5a77 77 0 0 0 46.9 16h6.1l1-2a138 138 0 0 0-33.5-15.3c-4.7-1.6-8.5-3-13.5-2.7m152 6-1.6 1a52 52 0 0 1-22.4 5.8q-7 .9-14 2.2l4-3c-6 .3-9.8 2.9-14 7-4 5.2-5.7 9.5-5 16l.9-1.9c1.1-2.1 1.1-2.1 3.1-4.1l1.7-2.4c2.8-3.2 5.7-4.6 9.6-6.4l2-1 4.7-2.2q-2.9 2.5-6 4.6l-2.8 1.9-2.2 1.5 1 2 2-1.1a79 79 0 0 1 19-7.3 43 43 0 0 0 20-9.6zm-223 3-.4 2.4c-.6 2.6-.6 2.6-2.6 4.6a28 28 0 0 0 18.7-.5l2.3-1.5c-2.7-3.5-5.8-4.1-10-5zm-199 1 1 2Zm138 1 1 2Zm283 0-2.3 2.3c-4.4 3.6-9.3 4.5-14.7 5.7l-3.6.8-9.4 2.2v1l11.5-.2c7.7-.3 12.4-3 18-8.1l1.5-1.7zm-159 1q4.7 4.9 10 9l-1.7-1.1-2.2-1.5-2.2-1.4-1.9-1-2 1 3 5-2.7-2c-3.3-2-3.3-2-5.5-1.6l-1.8.6c13.1 8.7 27.8 17 44 16-1.4-4.1-4.2-5.7-7.6-8.2l-2-1.5c-8-5.6-17.6-12-27.4-13.3m-41 5 5 2h-7c5.6 6.1 13 7.4 21 8h2c0-4 0-4-1.4-5.6-5.2-4.3-13.5-10.5-19.6-4.4m-215 1c-7 15-6.6 30.5-1 46 3.5 8.2 8.4 15 13.8 22 3.4 4.7 5.8 9.8 8.2 15 1.3-3.8.5-5-.7-8.7l-1.1-3.1q-2-5.2-4.2-10.2l5.9 9.3a78 78 0 0 1 9.5 26.7l1.6 7h1v-11.6q.2-7.4-1-14.4 3.3 9.4 5 19c5.3-8 3.2-21 1.4-30.1A63 63 0 0 0 77 330c.7 5.7 3.6 10.3 6.2 15.2l1 2 1 2c.8 1.8.8 1.8.8 5.8l-1.5-2.4-1.9-3.1-1.9-3L79 344h-2q-5.2-14.8-9-30h-1c-.2 8.3.2 16 2 24a82 82 0 0 1-8-33h-1l-2 18a71 71 0 0 1-1-26l-2 3v-13zm87 1 1 2Zm99 1 1 2-3 4c6 2.6 10.5 3.4 17 3-1.9-4.2-4-5.8-8-8-3.9-.7-3.9-.7-7-1m-98 1v11l-2-3-2-2v24l-2.5-9c-.8-3-1.3-4.8-3.5-7l.1 2.9A66 66 0 0 1 126 338l.4-1.8A74 74 0 0 0 128 317h-2l-.2 2c-2.2 16-12.3 28.4-21.8 41 0-3.9 1.4-6 3.1-9.6l1-1.8q3.6-7 7.7-13.5a19 19 0 0 0 2.2-6.1c-4.7 4.5-8.3 9.7-12 15l-1.7 2.3A42 42 0 0 0 95 376h2l2 13h1l.3-2.2c1.7-12.8 7-23 13.7-33.8-1 5-3.2 9.5-5 14.1-1 2.9-1 2.9 0 4.9l1.7-2.7A120 120 0 0 1 132 343l-1.6 2.6-2 3.3-2 3.3-1.4 2.8 1 2a85 85 0 0 0 12.9-16.7l1.1-2a50 50 0 0 0 6.3-27.6V308a50 50 0 0 0-3.3-18zm157 3c3.6 5.4 8.7 8.5 14 12l-2.3-1.3-3-1.6-3-1.7C302 299 302 299 299 298v2l-4-1a48 48 0 0 0 29.7 16.2l6.3-.2a75 75 0 0 0-25.4-19.5c-4.4-2.5-4.4-2.5-6.6-2.5m-36 1 2 4h-3v1l-2 1c5 4.5 10.3 7.2 17 7.2l3-.2c-1.6-5.3-4.3-7.5-9-10.1-5.6-2.9-5.6-2.9-8-2.9m170 6-3 3q5.6-1.1 11-2.8l3.3-1.1 3.5-1.2 3.6-1.1 8.6-2.8c-8.5-2.5-19.7 1.5-27 6m-199 0 3 3h-7a15 15 0 0 0 11.2 4h3.8c-2.4-3.2-4.2-5.6-8-7zM82 311c-.2 2.7-.2 2.7 0 5l2 1 1 3 2.3.4c2.7.6 2.7.6 5.7 2.6l2-3c2.6-.2 2.6-.2 5 0l2 4h2l2-6 1 2h2c2-2 3-3.4 4-6-.2-2.8-1-4-2.7-6.1-4.6-3.8-8.9-4.3-14.7-4.2A21 21 0 0 0 82 311m172-7v2l2 2-3-1-3 2c5.7 4.9 9.5 6.3 17 6a18 18 0 0 0-5.4-7.2l-1.7-1.5a13 13 0 0 0-5.9-2.3m33 0 2.8 3.3 1.6 1.9 4.6 4.8-2.7-2c-3.3-2-3.3-2-6.2-1.7l-2.1.7a44 44 0 0 0 28.7 15.3l2.3-.3a87 87 0 0 0-27-22zm-61 4 1 3-4 1c6.4 3 6.4 3 9.4 2.7l1.6-.7c-1.4-3.2-2-4-5-6zm209 2h21v-1l-8.8-.6-2.5-.2-2.5-.2-2.2-.1c-2 .1-2 .1-5 2.1m-260 4-2 10.3-.6 3-.5 2.8-.5 2.6c-.4 2.3-.4 2.3-.4 5.3h-2v-12c-2.3 2.3-2.4 3.3-3 6.5l-.5 2.6-.6 2.8-1 5.5-.5 2.5c-.4 2.1-.4 2.1-1.4 5.1l-.8-2.4C160 346 160 346 157 344l-.5 3.7A93 93 0 0 1 148 378v-16q-4.5 6.1-8.5 12.7L138 377c-4.3 7-7 13.9-8 22h-1l-2-16c-3.3 3.3-3.9 5-5.1 9.4l-1 3.4c-2.7 9.9-2 18.2.1 28.2h1l1-10 2 8 4 1 1 6h1l2-8 2 4 2-6h2l4-7v7c4-3.7 6.5-7.2 9-12v6c1.8-2.7 2.7-4.7 3.6-7.7l.8-2.4.6-1.9a47 47 0 0 1-12.7 24.6c-3.9 4.6-6 8.5-7.3 14.4l-.6 2.4q-.6 4-.5 7.9v2.6q0 3.6.6 7.2c2 16.6.8 33.5-2.1 49.9l-1 5.4c-.8 4.6-3 7.5-6.7 10.4l-5.4 3.5a18 18 0 0 0-7.3 9.7v8h7l.5-2.2c2.5-10.4 2.5-10.4 7.5-13.8a41 41 0 0 1 8-1l1 3-3.3.8c-3.7 1.2-3.7 1.2-5.6 2.9a24 24 0 0 0-2.1 9.3c1.7 1.7 3.9 1.2 6.2 1.2A28 28 0 0 0 145 545l1-6 2 2 2-6h2l-1-11h2l1-5h4v-2.1l.4-9.5.2-3.3v-3.3l.2-3q.4-4.4 1.2-8.8v28c2-4 2.2-5.5 2.2-9.8v-3.5l.1-3.8c.3-12 2-22.5 5.7-33.9l-.4 1.9-.6 2.4-.6 2.4q-.7 3.6-.4 7.3c2.7-5 4-10.4 5.6-15.8l1-3.2a45 45 0 0 0 2.4-16l1-3v-12c.9 2.7 1.1 4.2 1.1 7v7.1l-.1 5.9c6.8-6.7 6.8-6.7 7.3-12.2a25 25 0 0 0-1.8-8A38 38 0 0 1 184 403a48 48 0 0 0 2-16.4V380c2.7 7.6 3.9 15.1 5 23q0 1.3.3 2.6l.2 2.3c.5 2.1.5 2.1 2.5 6.1v-12l1.3 5a35 35 0 0 0 13.7 20l2-1-2.3-1.6a20 20 0 0 1-5.7-8.4l1.5 1.4c4.3 4 8.8 8 14.5 9.6 2.2-.4 2.2-.4 4-1l-2-1c-5.1-2.3-9-4.1-12-9l2 1.8a35 35 0 0 0 23 7.2c-3-2-3-2-8-4l13 1-1-2-6-1.5q-3.1-.8-6-2.5l2.8 1q7.5 2 15.2 1l3-2h-11v-2h2c4.8 0 9.3 0 14-1l-2-2 14-4-3-1 11-2v-1l-10-1 12-2v-1l-9-1a35 35 0 0 1 9.5-1.1h2.8q3.4 0 6.7 1.1a19 19 0 0 0-7-5l8 1-2.4-2.4-4.6-4.6 2.4 1.6 2.6 1.4 2-1-4-4 4-1-4.7-3.4-2.6-1.9a36 36 0 0 0-7.7-3.7c8.6.4 14 3.3 21 8l-2-4c4 2.8 6.2 5.3 8 10l-.5 1.9c-.6 2.7-.1 4.3.7 7l3.5 11.4.7 2.5c.6 2.2.6 2.2.6 5.2l-6-8-2 2-2.2-1.9c-2.6-2-4.6-3.2-7.8-4.1-2.3.4-2.3.4-4 1l3 1-2 .2c-10.4 1.2-19.5 5.5-29 9.8 3.1 1 5 1 8.2 0 9.8-2.3 22.5-3 31.7 1.7a69 69 0 0 1 23.6 25.8c5.3 8.7 11.7 16 21.5 19.5l2-1-5.4-5-1.5-1.4c-3.9-3.6-3.9-3.6-6.1-3.6l-.7-1.5-4.3-7.7C311 426 301.4 409 301 388l1 3.8 1.3 5 .7 2.5.6 2.5.6 2.2c1 2.3 2 3.3 3.8 5l2.3 6.8A100 100 0 0 0 329 450h3l6 4v-3l1.5 1.3 1.9 1.7 1.9 1.7c1.7 1.3 1.7 1.3 3.7 1.3l4.6 4 2.5 2.3 1.9 1.7-1 2 8 4h-5c4.3 3.5 9.2 5.7 14.1 8.2 3 1.9 3.6 2.6 4.9 5.8l3.4 3.6c4 4.4 7.6 10.3 7.6 16.4l-1 4-3-9c-1 3.9-1 4.8 0 8.4 1.2 5.6 1.1 11 1 16.8 0 2.8 0 2.8 1 3.8l-2.3 1.3a14 14 0 0 0-6.7 8.7 65 65 0 0 0 0 8h6l.6-2.3.7-3 .8-3c1-2.7 1.5-4 3.9-5.7 3.7-.2 3.7-.2 7 0l-2.4 1.7a12 12 0 0 0-4.6 7.3v5c8.9.8 8.9.8 13-2 4.5-6.7 5.5-12 4.5-19.8l-.3-2.6-1.2-9.6-2.6-20.8-1.4-10.6c-1.7-6.2-5.5-9.6-10.9-12.9-9.7-6.6-14.2-17.3-19.1-27.7-1.6 3.2 0 5.7 1 9l-7-14 1-2-1.5-5.8c-.9-3.8-1.3-7.7.5-11.2l-1-3.4c-1-3.6-1-3.6-.5-5.5 1.5-7-4.5-16.8-7.5-23.1l1-1c0-3.4-.5-4-2.5-6.7l-1.4-1.9-1.1-1.4 4 2c-11.8-14.1-25.4-25.3-44-29 12.4 1.2 24.7 8 34 16l1.8 1.5 4.2 3.5 2-1a80 80 0 0 0-21-19l-3-1.8c-12-5.7-24.1-4.8-37-4.2l5 6q-7.6 1.3-15.4 1H274l5 7q-11-.6-22-2l2 6-7.6-1.3-2.2-.4c-4.5-.8-8.1-2.1-12.2-4.3h-2v4c-6.6-2-11.8-4.3-17.2-8.7-2.5-1.8-4.8-2-7.8-2.3-2.2-.3-2.2-.3-4-1-1.2-2-1.2-2-2-4l-1 2c.8 2 .8 2 2 4.1l1 2.2 1 1.7-1.9-2.4C203 347 203 347 201 345l1 7-2-3h-2l-2 9v-2.6c-1.1-21.5-1.1-21.5-7-27.4l.2 2 .3 2.8.3 2.6c.2 2.6.2 2.6.2 6.6l-7-15-3 1c-3.3-9.4-3.3-9.4-4-14zm70 0-2 2h-3v2l9 4.7c3 1.3 3 1.3 6 1.3-.2-2.6-.5-4.4-2.3-6.4-4.1-3.6-4.1-3.6-7.7-3.6m31 0 1.9 2.8 4.1 6.2-5-3-3 2c1.9 5.7 9 8.4 14 11 4 1.9 7.7 2.6 12 3a70 70 0 0 0-22-22zm141 0c-3.3 5-2.5 10.2-2 16 2.6 12 12.2 19.5 21.3 26.8 10.5 8.5 18.5 18.6 20 32.5q.5 12.6-7 22.6c-5.5 5.8-12.4 7.3-20.2 7.7a49 49 0 0 1-32.4-15.8c-4.8-5.2-9-10.8-13.4-16.4A155 155 0 0 0 359 362l-2 1 1.8 2.4 2.4 3.2 1.2 1.6q3.3 4.3 6.3 8.6 3.2 4.4 6.7 8.4 4 4.8 7.6 9.8l-2-1c1.5 3.8 3.8 5.6 7 8l1 1c11.7 11 23.9 19 40.3 19.4 5.6-.1 9.7-1 14.7-3.4l3-1-4 3c4.8-.4 7.8-2.6 11-6a41 41 0 0 0 9.4-28.1A46 46 0 0 0 451 364l-2-2.2c-4.2-4.5-8.8-8.2-13.7-12C427.5 344 421 338 419 328l-.6-7.2-.2-3.9-.2-2.9zm-200 1v3l-3 1c3.4 2 6 2.2 10 2-3.6-4.9-3.6-4.9-7-6m18 5v3l-4-1c5.6 5.9 5.6 5.9 9 7l4-1-3.4-4-1.9-2.2-1.7-1.8zm-26 1 3 3 2-1-1-2zm-28 4 1 2Zm46 0-2 2-2 1c5.1 4.4 5.1 4.4 9 5-2.7-6.9-2.7-6.9-5-8m-15 3c.8 2 .8 2 2 4l3 1-1-4zm50-5 4.5 5.2c1.5 1.8 1.5 1.8 3.5 4.8l-7-5v2l-4 1a39 39 0 0 0 26 13l-7.7-9c-3.9-4.7-8-8.8-13.3-12zm-12 10 1 4-2.3-1c-2.7-1-2.7-1-5.7 0 6.2 6.2 14.7 14 24 14a32 32 0 0 0-6.4-9q-1-1.4-2.3-2.7a36 36 0 0 0-6.3-5.3zm-33 6c1.3 3.9 2.5 5.9 6 8h2l-1-5-3 1-2-4zm14 0a27 27 0 0 0 14.6 13.5l2.4.5a29 29 0 0 0-5.6-9.8l-2-2.4-1.4-1.8-2 1 1 2-2.4-1.5C233 339 233 339 231 339m-31 4 1 2Zm-54 8 1 2Zm-1 2q-2 3-3.6 5.9l-2 3.3-1.4 2.8 1 2 3-4.7 1.6-2.7c1.2-2.3 2-4 2.4-6.6zm-86 1 1 2Zm1 2a561 561 0 0 0 7 20c1.4-3.7.6-5.8-.7-9.4l-1.1-2.8A50 50 0 0 0 61 356zm67 9a74 74 0 0 0-12 28l1 4 1.1-3 1.5-4.1.8-2.2q3.5-9 7.6-18l1-2.7zm-13 16a41 41 0 0 0-5 36h1v-3.1c.4-8.8 1.4-17 3.7-25.5 1.4-5.2 1.4-5.2.3-7.4m-52 3q1.5 10.4 5 20l.8 2.3c2 5.4 2 5.4 4.2 7.7l-2-11 1.3 2.4c3.7 6.9 7.4 12 13.7 16.6l2.2 1.7L89 425a81 81 0 0 0-5.4-13l-1-1.8A209 209 0 0 0 76 398h-1l1 9a156 156 0 0 1-13-23zm297 1 1 3v-3zm2 3 1 2Zm-247 9 1 3Zm158 7v1h7v-1zm-187 2a38 38 0 0 0 4.4 12.2l.9 1.9c1.6 3.3 2.6 4.8 5.7 6.9q-2.7-6.9-6.1-13.3l-1.2-2.3L86 406zm279 4 1 2Zm-292 4 1 2Zm21 0a35 35 0 0 0 14 20q-2.1-6.6-5-13l-2 2-1.3-2-1.6-2.5-1.7-2.5-1.4-2zm101 0c.5 4.9 1.7 7.4 5 11l2-1-1-1.4-1.4-2-1.3-1.8zm44 18-10 5c3.4 1.1 3.9 1 7-.4l2.4-1 2.6-1.2 2.7-1.2L271 421v-1c-11.6-.6-23 6.8-33 12m126-9 1 2Zm73 1-3 2 6-1zm-341 3 1 2Zm147 13.3-2.8 1.4-3 1.6A111 111 0 0 1 211 453v1l-2.1.2-9.6 1.2-3.3.4-3.3.3-3 .4c-2.9.5-5 1-7.7 2.5-1.4 2.8-1.4 2.8-2.6 6.3l-.6 2-2 6-1.2 4c-6.8 21-6.8 21-7.2 31-.2 6.4-1 11.5-5.3 16.3-4.1 5.1-5 11-6.1 17.4l-1 5h90l2-12c2.5-5 4.8-7 10-9q4 0 8 .3c7 .2 7 .2 10.5-1.6 4-3.8 6.4-8.6 8.5-13.7l1.3-3a23 23 0 0 0-1.8-18q-4.8-6.3-10.5-12a96 96 0 0 1-22-40c-4 0-5.4.5-9 2.3M82 441c-.3 6 .8 11.3 2.3 17.1q3.5 15.9 5.2 32c.7 6.3 1.8 11.5 4.7 17.2.8 1.7.8 1.7.8 3.7l-1-2h-2l-3 7.3-.9 2.1c-1.2 3-2.1 5.3-2.1 8.6-2.3 1.1-3.6 1.1-6.1 1.1l-2.5.1h-5.2c-4.3.2-7.3.4-10.7 3.1-3 3.2-3.8 5.4-4.5 9.7.4 3 .4 3 1 5h3l.6-1.9C65 534 65 534 67.3 532.7c2.8-.7 4-.7 6.7.3l-2.4 1.9C69 537 69 537 68 539v7c17.3.5 17.3.5 25-2 4.3-4.2 5.5-10.2 7-16h3c3.7-3.4 3.6-7.3 4-12h4c1.7-5 .1-9-1.4-13.8l-.8-2.4-1.8-5.8 3 4q-2.2-10.6-6-21l3 3c-1.8-6-4.4-11.4-7-17-1.2 3.6-.4 5.6.5 9.2 1 5.5 1.2 11.2 1.5 16.8l-.7-2.6q-4.1-13.4-9.4-26.5l-1.2-3.2q-3.3-8.2-7.7-15.7zm184 12 1 2Zm1 2a44 44 0 0 0 14 21c7.3 7.1 11.4 12.3 11.6 23a43 43 0 0 1-12.6 29c-4.3 3-6.8 3.3-12 3l-2.3-.4q-3.3-.8-6.7-.6c-3.3 2.6-4.7 4-5.3 8.2 0 2.2 0 2.2.3 5.8 2-1 2-1 3.4-4.4 1.6-3.6 1.6-3.6 4.6-5.6h3l-2 1.6c-2 2.4-2 2.4-2.2 5.6l.2 2.8c4 1.4 7.9 1 12 .6l2.2-.1q5-.2 9.8-1.5v-2h-3l3-.4c7.6-2.1 12.2-11.5 16-18 1-1.6 1-1.6 2.6-3.5 2.3-3.4 3.2-7.3 4.4-11.1q-3.2 3-5.7 6.7l-1.3 1.9-1 1.4 1.3-2.7 1.6-3.6 1.7-3.6a25 25 0 0 0 1.7-18.4A32 32 0 0 0 298 479l.9 2.2 3.1 7.8h-2l-2-4v6l-.9-1.7A39 39 0 0 0 282 472a69 69 0 0 1-12.6-15l-1.4-2zm78 2 1 3 2-1zm-217 1c-2.2 6-3.3 12.1-4.5 18.3l-1.3 6.6-.6 3.2-1.7 7.5c-1.2 5-1.3 10-1.5 15.2q0 2.8-.2 5.5v2.5a31 31 0 0 1-1.2 6.2c3.3-.1 3.3-.1 7-1 4.5-5 5.2-10.6 6.3-17.2l.5-3.2c2.2-15 1.9-28.8-1.8-43.6zm188 0q-1.2 16.3 8 29.8c2 4.3 1.4 8-.2 12.4a423 423 0 0 1-18.2 29.4l-1.8 2.8-3.6 5.2-1.7 2.3-1.4 2.1c-1.1 2-1.1 2-1.1 6h65v-9c1.2-4.8 3-8.2 6.8-11.4 3.7-1.8 7.1-2.8 11.2-3.6.7-10.5-.4-21-7.1-29.5A43 43 0 0 0 358 486a176 176 0 0 1-42-28m-215 3 1 3v-3zm2 3q2.5 7.6 6 15c1-3 1-3-.2-6l-1.7-3.2-3.1-5.8zm236 0a48 48 0 0 0 31.2 18.8l2.8.2a44 44 0 0 0-8.3-4.2 77 77 0 0 1-20.3-12C342 465 342 465 339 464m-45 14 1 2Zm-184 1 1 2Zm-3 1a29 29 0 0 0 3 9c1-3 1-3-.4-6.2L108 480zm188 0 1 3v-3zm-130 1 1 2Zm144 1q1.7 4.2 3.6 8.3c1.5 4 2 7.4 2.4 11.7 2-3.1 2.6-5 2.5-8.7-1-4.6-4.3-8-7.5-11.3zm-12 1 1 2Zm-143 37 1 4Zm-48.6 12.3c-1.8 2.3-2 4-2.2 6.8l-.2 2.6c0 2.3 0 2.3 1 4.3h4l.3-1.8A30 30 0 0 1 114 531l1-3c-3.6 0-6.8 2-9.6 4.3m261.8 2.5c-1.7 3.2-1.5 5.6-1.2 9.2l2 3 3-1 .3-2c1-5.6 2.1-9.5 5.7-14-4.3 0-6.8 1.8-9.8 4.8"/><path fill="#5b5632" d="m251 165 2 1-2.4 2c-10.5 9-17.7 18.7-19.1 32.9l-.2 2.3-.3 1.8-2 1c-.7-11.6.4-21.3 8.2-30.4q6-6.3 13.8-10.6M82 239h1v9c3.7-1 5.2-1.7 8-4-.7 4.8-.7 4.8-3 7-.6 2.7-.6 2.7-1 6q-1.2 8.6-3 17h-1l-1-13h-3v-3l-3-.6a25 25 0 0 1-11-7.4c2-3 2-3 5-4a81 81 0 0 1 9 0l1-3c1-3 1-3 2-4m-8 12 1 3h5v-2l-4 1v-2zm39-12 2 1v6l2-.1c8.8-.3 8.8-.3 13 3.1a25 25 0 0 1-13 10l-2 2-2-1v15c-5-7.4-5.5-15.4-4-24l-4-1-1-5 1.8 1c2.2 1 2.2 1 6.2 2zm7 11-5 2 1 2 5-1zm63 87c4.4 5.6 5.2 8.9 5 16h-1l-1.4-5.2-.8-3q-1-3.7-1.8-7.8m164 43c2.6 2.3 4 4.6 5.6 7.7l1.2 2.4a46 46 0 0 1 3.4 19.3v2.3q0 7.8-2.2 15.3h-1l-1.5-8-.4-2.3a54 54 0 0 1-1.1-11c0-3.3-.2-5-1.6-8-1.4-3.7-1.4-3.7-.4-6.7 0-3 0-3-1-5.5s-1-2.5-1-5.5m4 13 1 2Zm-172-11c3.8 5.7 3.6 12.4 3 19-2.7 11.7-2.7 11.7-6 15l.4-3.9q1.6-15 2.6-30.1m-16 45c6.6 6.3 6.6 6.3 7.3 11.4.2 9.6-2 18.5-4.3 27.9l-4 16.7h-1v-7l-5 16h-1c.3-8 2-15.5 4-23.2l2.2-9.2c.8-3.6.8-3.6 1.8-4.6l.4-3.2c.6-3.8.6-3.8 1.7-6.7 1.8-6.2.2-12.2-2.1-18.1m-19 3c1.6 3.1.3 6-.4 9.4A144 144 0 0 0 141 460h-2c-.8-21-.8-21 4-29zm227 27q6.1 4.8 11 10.8c2 2.2 2 2.2 4.8 4.3 5.8 4.3 8.7 7.8 10 14.9l1.2 12 .7 5.6q.5 6.8.3 13.4a23 23 0 0 1-3.5-9.6l-2-10.1c-1.8-8.8-3.8-15.1-10.5-21.3-12-14.3-12-14.3-12-20M144.5 222c1.5 4.4 2 8.7.1 13l-3.1 5c-1.2-3.6-1.1-6.4-1-10.2V223c-2.8-.2-2.8-.2-6 0l-2.5 3-2.5 3c-3.3-.1-3.3-.1-6-1a13 13 0 0 1 6.4-8.3l2.3-1.6c5.6-2.7 8.3 0 12.3 3.9"/></svg>